PathFileType	4	(X/Y/Z)	C:\Users\Basilio\Documents\Thesis Gigler\squatting_fais\c3dfiles\040\SLS_pre_back3\markers_experimental.trc
DataRate	CameraRate	NumFrames	NumMarkers	Units	OrigDataRate	OrigDataStartFrame	OrigNumFrames
200.000000	200.000000	4	63	mm	200.000000	352	1410
Frame#	Time	FHD			LBHD			RBHD			C7			T10			CLAV			LSHO			LUUPA			LMUPA			LDUPA			LLEP			LMEP			LRAD			LUL			LRFIN			RSHO			RUPA1			RMUPA			RDUPA			RLEP			RMEP			RRAD			RUL			RUFIN			LASI			RASI			USACR			LSACR			RSACR			LTHI1			LTHI2			LTHI3			LTHI4			LLFC			LMFC			LTIB1			LTIB2			LTIB3			LTIB4			LLMAL			LMMAL			LHEE			LMT1			LMT2			LMT5			RTHI			RTHI2			RTHI3			RTHI4			RLFC			RMFC			RTIB1			RTIB2			RTIB3			RTIB4			RLMAL			RMMAL			RHEE			RMT1			RMT2			RMT5			*61			*62			
		X1	Y1	Z1	X2	Y2	Z2	X3	Y3	Z3	X4	Y4	Z4	X5	Y5	Z5	X6	Y6	Z6	X7	Y7	Z7	X8	Y8	Z8	X9	Y9	Z9	X10	Y10	Z10	X11	Y11	Z11	X12	Y12	Z12	X13	Y13	Z13	X14	Y14	Z14	X15	Y15	Z15	X16	Y16	Z16	X17	Y17	Z17	X18	Y18	Z18	X19	Y19	Z19	X20	Y20	Z20	X21	Y21	Z21	X22	Y22	Z22	X23	Y23	Z23	X24	Y24	Z24	X25	Y25	Z25	X26	Y26	Z26	X27	Y27	Z27	X28	Y28	Z28	X29	Y29	Z29	X30	Y30	Z30	X31	Y31	Z31	X32	Y32	Z32	X33	Y33	Z33	X34	Y34	Z34	X35	Y35	Z35	X36	Y36	Z36	X37	Y37	Z37	X38	Y38	Z38	X39	Y39	Z39	X40	Y40	Z40	X41	Y41	Z41	X42	Y42	Z42	X43	Y43	Z43	X44	Y44	Z44	X45	Y45	Z45	X46	Y46	Z46	X47	Y47	Z47	X48	Y48	Z48	X49	Y49	Z49	X50	Y50	Z50	X51	Y51	Z51	X52	Y52	Z52	X53	Y53	Z53	X54	Y54	Z54	X55	Y55	Z55	X56	Y56	Z56	X57	Y57	Z57	X58	Y58	Z58	X59	Y59	Z59	X60	Y60	Z60	X61	Y61	Z61	X62	Y62	Z62	X63	Y63	Z63	

353	1.76	-135.6030578613282	1769.174438476563	-1202.725341796875	-260.9499511718751	1717.293090820313	-1240.619995117188	-309.7802734375001	1679.796020507813	-1107.024291992188	-330.7942504882813	1564.10693359375	-1158.9267578125	-393.0764465332032	1252.809814453125	-1159.25244140625	-210.829574584961	1480.88916015625	-1161.0830078125	-259.9564514160157	1532.95751953125	-1322.266357421875	-180.0942993164063	1375.873413085938	-1427.663940429688	-135.7740478515625	1371.931762695313	-1405.398071289063	-137.4971618652344	1323.985961914063	-1443.0205078125	-107.0796279907227	1266.735961914063	-1453.09423828125	-135.8879547119141	1226.619384765625	-1406.003662109375	138.5442199707032	1194.14453125	-1310.331787109375	151.7362976074219	1172.860595703125	-1382.624145507813	226.1785888671876	1182.824584960938	-1296.298583984375	-247.0637817382813	1496.82763671875	-997.9953613281252	-219.9008941650391	1298.082763671875	-923.0748291015627	-174.5706634521485	1293.554077148438	-937.4616699218752	-186.9452514648438	1237.604858398438	-920.1943969726565	-147.5537261962891	1182.901245117188	-924.077575683594	-180.7738189697266	1159.205200195313	-992.0398559570315	103.8862075805664	1174.472900390625	-1078.315795898438	103.7456665039063	1115.681762695313	-1028.555053710938	193.8647155761719	1142.681396484375	-1092.240478515625	-241.3647613525391	1060.331665039063	-1274.462890625	-233.6873931884766	1055.01025390625	-1046.701293945313	-417.9329833984376	1121.166381835938	-1153.173095703125	-429.7898254394532	1092.443237304688	-1182.016723632813	-427.7220153808595	1090.966064453125	-1124.922973632813	-329.6697082519532	800.8009033203127	-1321.938110351563	-280.9570922851563	730.7589111328126	-1316.17236328125	-235.4175567626954	740.8642578125001	-1317.113891601563	-295.4888000488282	676.6672973632814	-1299.671142578125	-261.2778625488282	548.1063232421876	-1276.3017578125	-272.8004150390626	540.8889160156251	-1144.48291015625	-243.8374481201172	326.5901489257813	-1210.731689453125	-314.8579101562501	291.6164245605469	-1250.697875976563	-273.1312866210938	281.5795593261719	-1235.409057617188	-275.8434143066407	205.6267089843751	-1191.316040039063	-349.2079772949219	124.2335433959961	-1203.10791015625	-322.9679260253907	140.0945587158203	-1120.704223632813	-415.1112365722657	95.15371704101564	-1155.256225585938	-201.7283325195313	53.32418823242189	-1131.95703125	-199.8386535644532	52.1166458129883	-1178.01220703125	-253.1009063720704	39.67980957031251	-1226.715454101563	-260.0695800781251	791.2405395507815	-979.7412719726565	-220.2333068847657	737.0694580078126	-986.1318359375002	-188.9024200439453	742.4736938476564	-993.615417480469	-244.3452148437501	657.7682495117189	-995.3779907226565	-241.5816802978516	546.8333129882814	-1008.235229492188	-256.0568237304688	539.9739990234376	-1133.540161132813	-349.5557556152344	395.401336669922	-1021.480712890625	-452.7947387695314	413.5972595214845	-992.9331054687502	-430.5271606445314	373.9702758789063	-1002.176696777344	-461.860321044922	332.6383972167969	-1032.620727539063	-584.4846191406251	308.7440795898438	-1002.401489257813	-564.3889770507814	299.0718688964844	-1090.717529296875	-664.5362548828126	315.2914428710938	-1058.600708007813	-509.0557250976564	160.3628387451172	-1057.9345703125	-508.1680297851564	167.0284576416016	-1017.819458007813	-553.8948974609376	179.8505859375	-966.9338378906252	-254.2130584716797	539.5928344726564	-1135.1796875	nan	nan	nan	
354	1.765	-134.842041015625	1769.309936523438	-1203.402709960938	-260.7483520507813	1717.37890625	-1241.19970703125	-309.7927856445313	1679.980346679688	-1107.771728515625	-330.6068725585938	1564.274047851563	-1159.4326171875	-393.1504211425782	1252.968017578125	-1159.72705078125	-210.7743682861329	1480.8291015625	-1161.417602539063	-259.8014831542969	1533.265991210938	-1322.642578125	-179.5944519042969	1376.011962890625	-1427.79296875	-135.0858917236328	1372.279541015625	-1405.716064453125	-136.7767944335938	1324.254638671875	-1443.276245117188	-106.1353759765625	1266.983520507813	-1453.272705078125	-135.7475738525391	1227.297485351563	-1406.226806640625	139.5513763427735	1194.819580078125	-1310.5849609375	152.3612365722657	1173.305419921875	-1382.418823242188	226.9523468017579	1183.786254882813	-1296.52294921875	-246.8132019042969	1496.757690429688	-998.5159301757815	-219.1304931640626	1298.917846679688	-923.4136962890627	-174.063461303711	1293.944213867188	-937.6280517578127	-185.8852691650391	1238.43408203125	-920.2982177734377	-146.4281463623047	1183.2802734375	-924.005310058594	-179.2161254882813	1160.049194335938	-992.196228027344	104.9076156616211	1176.221313476563	-1079.059326171875	104.7258529663086	1117.055419921875	-1028.854736328125	195.2743072509766	1144.2568359375	-1092.342895507813	-241.4329681396485	1060.265625	-1274.57275390625	-233.9336700439454	1055.20361328125	-1046.796630859375	-417.8372802734376	1121.69775390625	-1153.349365234375	-429.8586730957032	1092.69189453125	-1182.212768554688	-427.9129943847657	1091.2158203125	-1125.154907226563	-329.9062194824219	800.8101806640627	-1321.9912109375	-281.2196960449219	730.8022460937501	-1316.234375	-235.7158966064454	740.7865600585939	-1317.1943359375	-295.7147521972657	676.6283569335939	-1299.736206054688	-261.5478210449219	548.1399536132814	-1276.388427734375	-273.8019409179688	541.3510742187501	-1144.672119140625	-243.9510803222657	326.5525512695313	-1210.889526367188	-314.9388732910157	291.5470275878907	-1250.741455078125	-273.0655517578126	281.6236267089844	-1235.593994140625	-275.9052734375001	205.6546325683594	-1191.387451171875	-349.2265014648438	124.1623153686524	-1203.101684570313	-322.8666687011719	140.007568359375	-1120.737670898438	-415.1824951171876	95.06967163085939	-1155.2197265625	-201.7098846435547	53.26416015625001	-1131.906494140625	-199.9037628173829	52.17807769775392	-1178.074584960938	-253.2468872070313	39.73191070556641	-1226.741333007813	-260.2164001464844	791.5313720703127	-979.6303710937502	-220.4547882080079	737.3551025390626	-985.6841430664065	-189.0001220703125	742.9982910156251	-993.574401855469	-244.4524536132813	658.1564331054689	-995.2080078125002	-241.7750244140626	547.4119262695314	-1008.078430175781	-256.3840026855469	540.4481811523439	-1133.34716796875	-349.9849243164063	395.9840393066407	-1021.189636230469	-453.2435913085939	414.2018432617189	-992.7197265625002	-431.1029357910157	374.7228393554688	-1002.1005859375	-462.2305603027345	333.3388366699219	-1032.612060546875	-584.9377441406251	309.5365600585938	-1002.10009765625	-564.8928833007814	299.8080139160157	-1090.69189453125	-664.9395751953126	315.2233886718751	-1058.53173828125	-508.267791748047	161.5582885742188	-1058.19189453125	-507.5861816406251	167.4210205078125	-1017.697387695313	-553.4647827148439	180.5892486572266	-966.826843261719	-254.3270874023438	539.8509521484376	-1134.669799804688	nan	nan	nan	
355	1.77	-135.519271850586	1769.648559570313	-1204.118408203125	-260.4695739746094	1717.393310546875	-1241.658447265625	-309.7101440429688	1680.127197265625	-1108.455810546875	-330.2706909179688	1564.336669921875	-1159.946533203125	-393.1014099121095	1253.104125976563	-1160.193359375	-210.7461547851563	1481.072631835938	-1161.7421875	-259.5701599121094	1533.061889648438	-1322.926513671875	-178.8400573730469	1376.225708007813	-1428.137451171875	-134.4275207519532	1372.577514648438	-1406.046630859375	-136.0228271484375	1324.402954101563	-1443.436401367188	-105.2963485717774	1267.19873046875	-1453.385131835938	-135.2050018310547	1227.892456054688	-1406.431640625	140.2258605957032	1195.574096679688	-1310.4091796875	153.2908325195313	1173.62841796875	-1382.364013671875	227.2770538330079	1183.857177734375	-1295.766723632813	-247.0648193359376	1497.261962890625	-999.0397949218752	-218.7315216064454	1300.023681640625	-923.5095214843752	-173.0816802978516	1294.857421875	-938.3421630859377	-184.8746337890625	1239.199096679688	-920.523620605469	-145.3029327392578	1184.342163085938	-924.1798095703127	-178.1116638183594	1160.605590820313	-992.3596801757815	105.8959579467774	1177.052124023438	-1079.757568359375	105.2773971557617	1118.385375976563	-1029.7314453125	196.224594116211	1145.7041015625	-1093.311767578125	-241.4960021972657	1060.170532226563	-1274.646240234375	-234.0675354003907	1055.470336914063	-1046.971557617188	-418.1454162597657	1121.64599609375	-1153.796020507813	-429.8528747558595	1092.875244140625	-1182.48046875	-428.0737609863282	1091.576171875	-1125.31201171875	-330.1043090820313	800.7915039062502	-1322.076538085938	-281.3469543457032	730.8176269531251	-1316.352172851563	-235.9123687744141	740.8063964843751	-1317.296752929688	-295.7622985839844	676.6089477539064	-1299.800537109375	-261.8190612792969	548.1603393554689	-1276.4716796875	-274.7602233886719	541.8417358398439	-1144.86181640625	-244.026596069336	326.4063110351563	-1210.924438476563	-315.1823120117188	291.5157775878907	-1250.73974609375	-273.2855224609376	281.6214904785157	-1235.679443359375	-276.0246276855469	205.6410369873047	-1191.429077148438	-349.2803955078126	124.1531753540039	-1203.125244140625	-322.8567504882813	140.0223999023438	-1120.734008789063	-415.134979248047	95.08218383789064	-1155.203369140625	-201.5866241455079	52.92969131469728	-1132.20361328125	-199.8821868896485	52.16027450561525	-1178.024291992188	-253.1891784667969	39.94425201416016	-1227.059204101563	-260.3023376464844	792.111755371094	-979.5028076171877	-220.7651062011719	738.0641479492189	-985.7509765625002	-189.2789611816407	743.4420166015626	-993.2185058593752	-244.4993591308594	658.3325805664064	-994.9295654296877	-242.0424499511719	547.7437744140626	-1007.921691894531	-256.5205078125001	540.8752441406251	-1133.121337890625	-350.4135437011719	396.4676818847657	-1020.920349121094	-453.8817138671876	415.0124816894532	-992.4553222656252	-431.9792785644532	375.1675720214844	-1002.25830078125	-462.8967285156251	333.7307434082032	-1032.55419921875	-586.0360107421876	309.8454589843751	-1002.345947265625	-564.9967041015626	300.2044677734376	-1090.389770507813	-665.6178588867189	315.4975891113282	-1058.4599609375	-508.2998046875001	162.456298828125	-1058.015869140625	-507.3226928710939	168.9556579589844	-1018.1435546875	-553.2752075195314	181.4539947509766	-967.0170898437502	-254.6067199707032	540.2725830078126	-1134.313110351563	nan	nan	nan	
356	1.775	-134.3753204345703	1769.3916015625	-1204.425415039063	-260.1531066894532	1717.568481445313	-1242.2236328125	-309.5211486816407	1680.194580078125	-1109.041625976563	-330.2613830566407	1564.413818359375	-1160.51708984375	-393.1329345703126	1253.382446289063	-1160.568237304688	-210.4309844970704	1481.181030273438	-1162.237915039063	-259.1646118164063	1533.142578125	-1323.54736328125	-178.0468444824219	1376.411865234375	-1428.50048828125	-133.7738189697266	1372.865112304688	-1406.252685546875	-135.1475219726563	1324.606811523438	-1443.649536132813	-104.4966659545899	1267.485717773438	-1453.532470703125	-134.2099761962891	1228.002685546875	-1406.642333984375	141.1950225830078	1196.274780273438	-1310.382568359375	154.514144897461	1174.366455078125	-1382.758422851563	229.1902770996094	1184.4287109375	-1296.571655273438	-247.2197875976563	1497.538818359375	-999.590759277344	-217.8824310302735	1300.519775390625	-924.2550048828127	-172.4472045898438	1295.946411132813	-938.7065429687502	-184.2401580810547	1239.928588867188	-920.8342895507815	-143.9031219482422	1185.576171875	-924.5150146484377	-177.0199584960938	1161.295043945313	-992.4649658203127	106.5965805053711	1178.499389648438	-1080.1630859375	107.5832901000977	1120.271362304688	-1029.478149414063	197.1613006591797	1147.741455078125	-1093.827514648438	-241.4690704345704	1060.035888671875	-1274.738891601563	-234.1588287353516	1055.68017578125	-1047.24169921875	-418.2379760742189	1121.874755859375	-1154.187255859375	-429.9377746582032	1093.061767578125	-1182.714721679688	-428.1028442382814	1091.754760742188	-1125.621948242188	-330.2845153808594	800.7322387695315	-1322.131958007813	-281.5880737304688	730.8765258789064	-1316.44970703125	-236.0685272216797	740.7966308593751	-1317.425903320313	-295.9911804199219	676.5864868164064	-1299.862548828125	-262.0700988769532	548.2111816406251	-1276.610107421875	-275.6955566406251	542.3038940429689	-1145.08740234375	-244.161605834961	326.3758239746094	-1211.044189453125	-315.3230590820313	291.4642333984376	-1250.856323242188	-273.4710083007813	281.5702514648438	-1235.736206054688	-275.9944763183594	205.5793609619141	-1191.557983398438	-349.3230895996094	124.1392288208008	-1203.160766601563	-322.8461608886719	140.0404205322266	-1120.763061523438	-415.132537841797	95.06487274169923	-1155.17529296875	-201.720199584961	53.44443511962892	-1131.957885742188	-199.9861450195313	52.1313934326172	-1178.030883789063	-253.2593383789063	39.68399047851563	-1226.740478515625	-260.4320678710938	792.6418457031252	-979.3646240234377	-220.9423980712891	738.6324462890626	-985.7335205078127	-189.4500274658203	743.9813232421876	-992.8486938476565	-244.6024475097657	658.6276855468751	-994.712829589844	-242.3778381347657	548.1989746093751	-1007.639099121094	-256.6571655273438	541.3138427734376	-1132.838623046875	-350.7536621093751	397.2702026367189	-1020.766174316406	-455.3267822265626	415.5276489257814	-992.5361938476565	-432.7019958496095	375.8373107910157	-1002.007507324219	-463.3361816406251	334.2023010253907	-1032.31103515625	-586.5765991210939	310.4645996093751	-1002.43603515625	-566.9210815429689	302.0148010253907	-1091.129760742188	-666.2915039062501	315.6485900878907	-1058.341186523438	-507.9515991210939	163.2834625244141	-1058.257446289063	-506.7970275878907	170.2457427978516	-1018.171508789063	-553.4476928710939	182.6187133789063	-966.7720336914065	-254.7670898437501	540.6384887695314	-1134.1875	nan	nan	nan	
